<svg t="1613179657833" class="icon" viewBox="0 0 1024 1024" version="1.1" xmlns="http://www.w3.org/2000/svg" p-id="5729" width="200" height="200"><path d="M917.538133 415.744h-258.501973C759.190187 45.78304 590.00832 26.88 590.00832 26.88c-71.7312 0-56.84224 56.70912-62.2592 66.16064 0 180.93056-192.180907 322.70336-192.180907 322.70336v513.088853c0 50.629973 69.021013 68.860587 96.088747 68.860587h388.437333c36.543147 0 66.31424-95.870293 66.31424-95.870293 96.1024-326.751573 96.1024-423.963307 96.1024-423.963307 0-67.51232-64.9728-62.11584-64.9728-62.11584z m-688.052906 0.170667H74.687147c-31.976107 0-32.48128 31.39584-32.48128 31.39584l31.976106 517.471573c0 32.914773 32.986453 32.914773 32.986454 32.914773h133.9904c27.91424 0 27.661653-21.77024 27.661653-21.77024v-520.772266c0-39.744853-39.335253-39.23968-39.335253-39.23968z m0 0" p-id="5730" fill="#1296db"></path></svg>