<svg t="1608451314577" class="icon" viewBox="0 0 1024 1024" version="1.1" xmlns="http://www.w3.org/2000/svg" p-id="2995" width="200" height="200"><path d="M277.9 742s167.9-294.1 465.3-465.3C575.7 577.8 277.9 742 277.9 742z" fill="#FFFFFF" p-id="2996"></path><path d="M743.1 742S575.2 447.9 277.8 276.7C445.3 577.8 743.1 742 743.1 742z" fill="#FFFFFF" p-id="2997"></path><path d="M284.1 343m-49 0a49 49 0 1 0 98 0 49 49 0 1 0-98 0Z" fill="#FFFFFF" p-id="2998"></path><path d="M284.1 515.5m-49 0a49 49 0 1 0 98 0 49 49 0 1 0-98 0Z" fill="#FFFFFF" p-id="2999"></path><path d="M284.1 683.5m-49 0a49 49 0 1 0 98 0 49 49 0 1 0-98 0Z" fill="#FFFFFF" p-id="3000"></path><path d="M808.4 341.6s-208.5-61.2-420 0c211.5 64.8 420 0 420 0zM808.4 516.6s-208.5-61.2-420 0c211.5 64.8 420 0 420 0zM808.4 684.6s-208.5-61.2-420 0c211.5 64.8 420 0 420 0z" fill="#FFFFFF" p-id="3001"></path><path d="M512 512m-448 0a448 448 0 1 0 896 0 448 448 0 1 0-896 0Z" fill="#ED153F" p-id="3002"></path><path d="M647.2 329c-78.9-9-135.2 72.1-135.2 72.1s-56.4-81-135.2-72.1c-91.1 10.3-150.9 117.2-118.2 201.7 32.6 84.5 196.6 126.1 253.5 234.9 56.8-108.8 220.8-150.4 253.5-234.9 32.5-84.5-27.2-191.3-118.4-201.7z" fill="#FFFFFF" p-id="3003"></path></svg>