<svg t="1618285705813" class="icon" viewBox="0 0 1024 1024" version="1.1" xmlns="http://www.w3.org/2000/svg" p-id="2758" width="200" height="200"><path d="M426.666667 768a42.666667 42.666667 0 0 1-42.666667 42.666667H341.333333a42.666667 42.666667 0 0 1-42.666666-42.666667V256a42.666667 42.666667 0 0 1 42.666666-42.666667h42.666667a42.666667 42.666667 0 0 1 42.666667 42.666667v512z m298.666666 0a42.666667 42.666667 0 0 1-42.666666 42.666667h-42.666667a42.666667 42.666667 0 0 1-42.666667-42.666667V256a42.666667 42.666667 0 0 1 42.666667-42.666667h42.666667a42.666667 42.666667 0 0 1 42.666666 42.666667v512z" fill="#000000" p-id="2759"></path></svg>