<svg t="1613180691635" class="icon" viewBox="0 0 1024 1024" version="1.1" xmlns="http://www.w3.org/2000/svg" p-id="10397" width="200" height="200"><path d="M47.52 950.368H190.08V451.424H47.52v498.944zM642.304 118.816a71.328 71.328 0 0 0-142.56 0c-2.368 126.88-45.984 221.856-118.016 278.08a282.528 282.528 0 0 1-82.048 44.544c-16.832 5.76-62.08 9.984-62.08 9.984v498.944h593.984c30.432-0.16 66.624-30.272 71.264-69.856l70.848-413.472c2.624-24.448-31.936-63.136-70.848-63.136h-225.312a47.552 47.552 0 0 1-46.656-56.544c6.4-28.704 12.992-61.056 14.528-78.24 3.456-38.944 2.848-80.96-0.256-120.992-0.576-7.232-2.368-28.16-2.528-29.312h-0.32z m-190.08-0.416A118.848 118.848 0 0 1 571.04 0a119.2 119.2 0 0 1 119.136 115.936c0.096 3.84 1.728 20.416 2.336 28.544 3.296 42.432 3.904 86.944 0.224 128.832-2.752 31.264-7.808 59.168-15.584 83.104h225.696c65.6 0 121.6 57.6 118.816 118.752 0 0-54.016 312.832-71.296 403.84-15.04 79.168-57.792 117.888-118.784 118.912H47.52l-3.136-0.128-3.2-0.32-3.072-0.512-2.88-0.704-2.88-0.832-2.72-0.992-2.624-1.216-2.56-1.312-2.304-1.344-2.144-1.44-2.016-1.536-1.92-1.6-1.728-1.6-1.696-1.76-1.504-1.664-1.408-1.792-1.28-1.76-1.28-1.92-1.088-1.792-1.024-1.952-0.928-1.984-0.8-1.856-0.704-1.92-0.64-1.952-0.544-1.984L0.96 960l-0.352-2.016-0.32-2.08-0.192-2.08-0.064-1.92L0 451.424a47.68 47.68 0 0 1 12.864-32.544l1.632-1.632a47.68 47.68 0 0 1 32.416-13.344h214.432s14.784-0.8 29.92-7.008c22.72-9.376 39.52-20.512 61.216-37.44 60.672-47.392 97.632-127.936 99.744-240.64V118.4z" p-id="10398" fill="#1296db"></path></svg>